<svg width="556" height="141" viewBox="0 0 556 141" fill="none" xmlns="http://www.w3.org/2000/svg">
<g clip-path="url(#clip0_1_26)">
<path d="M69.43 72.56C70.26 68.46 71.06 64.49 71.85 60.58C71.91 60.51 71.93 60.49 71.94 60.47C71.96 60.46 71.98 60.45 72 60.44C72.02 60.44 72.05 60.42 72.07 60.42C72.09 60.42 72.12 60.42 72.14 60.42C72.19 60.42 72.24 60.42 72.29 60.42C72.31 60.42 72.34 60.42 72.36 60.42C72.41 60.42 72.46 60.42 72.51 60.42C157.96 60.42 243.42 60.42 328.87 60.42C328.92 60.42 328.97 60.42 329.02 60.42C329.04 60.42 329.07 60.42 329.09 60.42C329.11 60.42 329.14 60.42 329.16 60.42C329.18 60.42 329.21 60.42 329.23 60.41C329.25 60.41 329.27 60.39 329.38 60.32C331.86 48.29 334.35 36.2 336.83 24.17C354.25 24.13 371.62 24.09 389.1 24.05C388.08 29.46 387.09 34.76 386.09 40.09C385.7 40.09 385.38 40.09 385.07 40.09C375.87 40.04 366.68 39.98 357.48 39.96C355.97 39.96 354.45 40.1 352.85 40.17C351.38 46.81 349.9 53.49 348.4 60.26C348.7 60.28 348.93 60.3 349.16 60.3C357.32 60.27 365.49 60.24 373.65 60.21C376.01 60.21 378.37 60.19 380.73 60.19C381.57 60.19 381.76 60.35 381.63 61.19C381.49 62.11 381.25 63.02 381.04 63.93C380.15 67.81 379.26 71.69 378.37 75.57C378.33 75.74 378.27 75.9 378.2 76.15C367.2 76.08 356.19 76.01 345.1 75.94C343.32 84.07 341.55 92.17 339.76 100.37C342.07 100.43 344.29 100.34 346.51 100.34C348.77 100.34 351.03 100.32 353.3 100.3C355.54 100.29 357.78 100.28 360.01 100.27C362.27 100.26 364.53 100.23 366.8 100.22C369.03 100.22 371.27 100.22 373.6 100.22C372.56 105.56 371.49 110.86 370.41 116.17H317.86C320.84 101.63 323.85 87.15 326.83 72.57H69.43V72.56Z" fill="white"/>
<path d="M392.81 24H460.68C459.55 29.31 458.43 34.56 457.29 39.88H408.63C407.04 46.62 405.47 53.3 403.87 60.1H451.75C450.58 65.45 449.42 70.69 448.26 76H400.67C397.91 89.45 395.17 102.85 392.42 116.28H373.39C379.87 85.51 386.34 54.77 392.82 24H392.81Z" fill="white"/>
<path d="M513.07 116.47H395.52C396.66 111.02 397.78 105.62 398.92 100.17H479.05C479.5 96.89 479.94 93.66 480.41 90.29C491.38 99.03 502.25 107.68 513.12 116.34C513.1 116.38 513.08 116.43 513.06 116.47H513.07Z" fill="white"/>
<path d="M249.82 114.72H231.23C229.16 108.99 227.1 103.27 225.04 97.55C224.98 97.55 224.93 97.55 224.87 97.55C223.32 103.27 221.77 108.99 220.22 114.72H202.52C205.98 101.91 209.43 89.15 212.89 76.37H230.62C232.98 82.04 235.34 87.72 237.71 93.39C237.77 93.39 237.82 93.39 237.88 93.39C239.42 87.72 240.95 82.05 242.49 76.37H260.19C256.73 89.16 253.29 101.9 249.82 114.72Z" fill="white"/>
<path d="M118.2 94.77C119.14 94.93 120.08 95.06 121.01 95.26C122.02 95.48 123.02 95.73 124.01 96.03C125.09 96.36 125.99 97.01 126.78 97.8C127.37 98.39 127.67 99.09 127.48 99.94C127.08 101.74 126.73 103.54 126.27 105.33C125.52 108.26 124.7 111.17 123.91 114.08C123.85 114.29 123.79 114.5 123.72 114.73H104.08C104.17 114.38 104.25 114.07 104.33 113.77C105.4 109.79 106.49 105.8 107.54 101.81C107.74 101.06 107.87 100.27 107.91 99.49C107.97 98.43 107.6 98.01 106.59 97.77C105.19 97.44 103.77 97.43 102.29 97.47C100.73 103.23 99.18 108.96 97.62 114.72H76.6C76.6 114.72 76.54 114.69 76.53 114.67C76.52 114.65 76.51 114.62 76.52 114.6C79.92 101.98 83.31 89.37 86.71 76.75C86.74 76.63 86.8 76.52 86.87 76.35C87.1 76.35 87.34 76.35 87.59 76.35C95.19 76.36 102.79 76.33 110.39 76.41C114.08 76.45 117.76 76.64 121.44 76.85C123.43 76.96 125.4 77.33 127.24 78.15C128.11 78.54 128.95 79.03 129.72 79.57C130.96 80.44 131.6 81.72 131.68 83.21C131.82 86.11 130.98 88.75 129.29 91.1C128.52 92.17 127.47 92.88 126.24 93.33C124.73 93.89 123.16 94.18 121.57 94.36C120.45 94.49 119.33 94.59 118.2 94.7C118.2 94.72 118.2 94.74 118.2 94.76V94.77ZM106.24 82.9C105.47 85.76 104.71 88.56 103.94 91.44C105.5 91.47 106.94 91.4 108.38 91.17C109.6 90.98 110.46 90.33 110.85 89.22C111.32 87.91 111.68 86.55 111.99 85.19C112.19 84.3 111.74 83.64 110.87 83.37C109.37 82.91 107.83 82.91 106.24 82.9Z" fill="white"/>
<path d="M163.89 115.62C158.76 115.55 154.69 115.34 150.68 114.44C149 114.06 147.35 113.57 145.8 112.81C144.69 112.27 143.67 111.59 142.78 110.72C141.45 109.42 140.87 107.87 141.22 106.03C141.6 104.03 141.96 102.02 142.48 100.05C143.56 95.97 144.72 91.9 145.88 87.84C146.15 86.9 146.54 85.99 146.89 85.07C147.52 83.41 148.61 82.11 150.01 81.05C151.94 79.6 154.09 78.6 156.36 77.84C159.43 76.82 162.59 76.25 165.8 75.91C169.87 75.48 173.95 75.39 178.03 75.64C181.52 75.86 184.98 76.28 188.32 77.38C189.54 77.78 190.72 78.28 191.79 78.98C192.28 79.3 192.75 79.66 193.21 80.04C194.86 81.43 195.46 83.18 195.11 85.31C194.67 88.03 194 90.7 193.26 93.35C192.33 96.69 191.4 100.02 190.43 103.35C190.14 104.34 189.74 105.29 189.36 106.25C188.81 107.63 187.91 108.75 186.77 109.69C184.76 111.33 182.46 112.42 180.02 113.23C176.95 114.25 173.79 114.87 170.58 115.16C168.01 115.39 165.43 115.51 163.9 115.61L163.89 115.62ZM164.44 109.13C164.84 109.09 165.23 109.04 165.62 109C166.8 108.88 167.65 108.29 168.09 107.18C168.43 106.34 168.77 105.49 169.01 104.62C170.73 98.32 172.44 92.02 174.12 85.72C174.3 85.04 174.41 84.32 174.45 83.62C174.5 82.76 174.16 82.33 173.32 82.16C172.77 82.05 172.2 81.98 171.64 82.02C169.06 82.18 168.53 82.86 167.84 84.72C167.45 85.78 167.17 86.88 166.88 87.96C165.35 93.6 163.83 99.24 162.32 104.88C162.11 105.68 161.97 106.51 161.87 107.34C161.74 108.34 162.11 108.79 163.12 108.97C163.55 109.05 164 109.07 164.43 109.12L164.44 109.13Z" fill="white"/>
<path d="M162.43 25.25C160.23 35.87 158.04 46.42 155.84 57.02H139.72C140.64 52.57 141.55 48.16 142.48 43.69H137.65C136.73 48.12 135.81 52.54 134.9 56.94C134.37 57.1 120.02 57.16 118.76 57C120.96 46.41 123.15 35.82 125.35 25.22H141.45C140.73 29.01 139.88 32.72 139.15 36.51H143.97C144.75 32.76 145.53 29.02 146.32 25.24H162.44L162.43 25.25Z" fill="white"/>
<path d="M451.56 76.1C452.71 70.73 453.83 65.47 454.96 60.15H494.17C494.08 59.3 494.01 58.52 493.92 57.65C506.67 61.46 519.32 65.24 531.96 69.01C531.96 69.07 531.96 69.09 531.95 69.1C531.94 69.12 531.92 69.14 531.9 69.15C531.84 69.18 531.77 69.22 531.7 69.24C519.25 72.48 506.79 75.72 494.22 78.99C494.4 77.99 494.56 77.08 494.73 76.09H451.54L451.56 76.1Z" fill="white"/>
<path d="M314.64 39.29C315.61 34.61 316.59 29.92 317.56 25.23H331.04C328.84 35.85 326.64 46.43 324.44 57.03H310.29C308.53 52.31 306.78 47.6 305.02 42.9C304.96 42.9 304.91 42.9 304.85 42.9C303.84 47.58 302.91 52.29 301.9 57.02H288.43C290.63 46.41 292.82 35.84 295.02 25.24H308.51C310.49 29.91 312.48 34.62 314.48 39.34C314.53 39.33 314.58 39.32 314.64 39.3V39.29Z" fill="white"/>
<path d="M38.71 76.39H74.58C73.89 78.95 73.21 81.46 72.52 84.01H57.83C57.17 86.43 56.53 88.81 55.86 91.28H68.94C68.26 93.78 67.62 96.19 66.96 98.63H53.88C52.42 104.02 50.97 109.36 49.52 114.72H28.34C31.81 101.9 35.26 89.14 38.71 76.38V76.39Z" fill="white"/>
<path d="M282.81 84.03H270.31C270.95 81.43 271.67 78.95 272.35 76.4H318.63C317.94 78.94 317.27 81.45 316.57 84.01H303.99C301.21 94.28 298.45 104.49 295.69 114.71H274.52C277.29 104.47 280.04 94.28 282.81 84.02V84.03Z" fill="white"/>
<path d="M258.3 57.76C254.84 57.7 251.45 57.53 248.16 56.58C247.1 56.28 246.06 55.88 245.08 55.38C244.28 54.97 243.55 54.4 242.88 53.8C241.77 52.81 241.3 51.54 241.41 50.03C241.56 47.99 241.92 45.99 242.35 43.99C243.02 40.82 243.72 37.65 244.42 34.49C244.57 33.8 244.82 33.12 245.03 32.44C245.46 31.03 246.31 29.91 247.44 28.99C249.15 27.6 251.11 26.72 253.19 26.08C255.62 25.34 258.11 24.93 260.64 24.73C263.59 24.5 266.53 24.49 269.48 24.75C271.88 24.96 274.27 25.31 276.53 26.21C277.44 26.57 278.32 27.02 279.15 27.54C281.25 28.87 282.16 30.77 281.7 33.27C281.2 35.97 280.75 38.69 280.2 41.38C279.7 43.81 279.08 46.21 278.55 48.63C277.93 51.49 276.15 53.39 273.64 54.73C271.42 55.91 269.05 56.59 266.6 57.05C263.84 57.57 261.04 57.71 258.3 57.77V57.76ZM259.19 52.37V52.34C259.36 52.34 259.54 52.34 259.71 52.34C260.84 52.31 261.63 51.81 261.98 50.7C262.19 50.02 262.42 49.34 262.57 48.65C263.62 43.65 264.66 38.65 265.68 33.65C265.84 32.86 265.93 32.05 265.97 31.24C266 30.53 265.71 30.22 265.02 30.05C264.21 29.86 263.41 29.9 262.62 30.14C262.02 30.32 261.55 30.68 261.34 31.27C261.08 32.01 260.82 32.76 260.66 33.52C259.63 38.4 258.61 43.28 257.61 48.16C257.41 49.12 257.3 50.1 257.23 51.08C257.18 51.81 257.46 52.11 258.17 52.27C258.5 52.34 258.85 52.35 259.19 52.38V52.37Z" fill="white"/>
<path d="M93.95 44.26H109.97C109.98 44.38 110.02 44.47 110 44.56C109.65 46.37 109.21 48.16 108.54 49.88C107.72 52 106.31 53.55 104.28 54.56C101.86 55.76 99.32 56.56 96.67 57.05C92.78 57.76 88.86 57.87 84.91 57.65C82.1 57.49 79.33 57.17 76.64 56.31C75.56 55.96 74.53 55.51 73.57 54.9C72.09 53.95 71.34 52.59 71.21 50.86C71.08 49.15 71.28 47.47 71.63 45.81C72.38 42.25 73.1 38.69 73.87 35.14C74.09 34.14 74.43 33.16 74.74 32.17C75.13 30.94 75.89 29.96 76.88 29.14C78.68 27.66 80.76 26.74 82.97 26.08C85.45 25.34 87.99 24.93 90.57 24.72C93.64 24.48 96.71 24.49 99.78 24.75C102.51 24.98 105.2 25.43 107.74 26.49C108.39 26.77 109.03 27.09 109.65 27.44C111.4 28.42 112.17 29.97 112.22 31.95C112.26 33.66 111.93 35.32 111.59 36.99C111.45 37.66 111.3 38.33 111.15 39.03H95.08C95.12 38.76 95.14 38.52 95.19 38.29C95.58 36.34 95.98 34.39 96.36 32.44C96.44 32.03 96.45 31.61 96.44 31.19C96.42 30.57 96.2 30.26 95.62 30.11C94.43 29.8 93.23 29.84 92.06 30.25C91.54 30.43 91.19 30.83 91.01 31.33C90.73 32.09 90.45 32.86 90.29 33.65C89.21 38.79 88.15 43.94 87.1 49.09C86.98 49.66 86.92 50.26 86.92 50.84C86.92 51.7 87.22 52.05 88.06 52.23C89.03 52.43 90.02 52.43 90.98 52.15C91.64 51.96 92.12 51.54 92.33 50.89C92.65 49.91 92.94 48.92 93.19 47.92C93.48 46.73 93.7 45.52 93.96 44.25L93.95 44.26Z" fill="white"/>
<path d="M489.05 49.73C488.59 46.36 488.15 43.06 487.69 39.68H460.7C461.88 34.45 463.03 29.33 464.18 24.18H527.69C527.69 24.18 527.71 24.22 527.71 24.25C527.71 24.27 527.71 24.3 527.69 24.31C514.97 32.7 502.25 41.08 489.53 49.47C489.41 49.55 489.28 49.61 489.05 49.73Z" fill="white"/>
<path d="M60.89 50.71C60.44 52.87 60.02 54.93 59.58 57.02H31.62C33.82 46.41 36.01 35.85 38.21 25.24H65.1C64.67 27.34 64.24 29.4 63.81 31.52H53.04C52.62 33.53 52.21 35.5 51.78 37.57C52.49 37.57 53.14 37.59 53.79 37.59C54.45 37.59 55.12 37.59 55.78 37.59H59.76C60.42 37.59 61.08 37.59 61.85 37.59C61.43 39.65 61.02 41.61 60.61 43.62H50.54C50.05 45.97 49.56 48.29 49.06 50.71H60.9H60.89Z" fill="white"/>
<path d="M174.25 25.24H201.14C200.7 27.36 200.28 29.42 199.84 31.54H189.07C188.65 33.56 188.24 35.53 187.82 37.57H197.72C197.8 38.16 196.93 42.66 196.55 43.63H186.56C186.07 45.99 185.59 48.31 185.08 50.73H196.92C196.47 52.89 196.04 54.95 195.61 57.02H167.64C169.84 46.39 172.04 35.82 174.23 25.24H174.25Z" fill="white"/>
<path d="M205.8 57.02C208 46.41 210.19 35.84 212.39 25.24H228.51C226.75 33.73 225 42.17 223.23 50.71H233.03C232.59 52.86 232.16 54.92 231.73 57.02H205.79H205.8Z" fill="white"/>
<path d="M66.44 72.52H55.47C56.31 68.48 57.14 64.5 57.98 60.47H69.16C68.25 64.49 67.35 68.48 66.44 72.52Z" fill="white"/>
<path d="M47.88 60.45H55.19C54.28 64.49 53.38 68.48 52.48 72.51H45.38C46.22 68.48 47.05 64.49 47.89 60.45H47.88Z" fill="white"/>
<path d="M42.36 72.52H37.25C38.09 68.47 38.93 64.47 39.76 60.46H45.08C44.17 64.49 43.28 68.46 42.36 72.52Z" fill="white"/>
<path d="M32.75 60.45H36.96C36.05 64.49 35.15 68.49 34.24 72.51H30.24C31.08 68.49 31.9 64.51 32.75 60.45Z" fill="white"/>
<path d="M26.78 60.45H29.96C29.05 64.5 28.15 68.49 27.24 72.52H24C24.93 68.48 25.85 64.49 26.78 60.45Z" fill="white"/>
</g>
<defs>
<clipPath id="clip0_1_26">
<rect width="507.97" height="92.47" fill="white" transform="translate(24 24)"/>
</clipPath>
</defs>
</svg>
